<?xml version="1.0" encoding="UTF-8"?>
<svg width="24px" height="24px" viewBox="0 0 24 24" version="1.1" xmlns="http://www.w3.org/2000/svg" xmlns:xlink="http://www.w3.org/1999/xlink">
    <!-- Generator: Sketch 57.1 (83088) - https://sketch.com -->
    <title>icon / blue / ftp</title>
    <desc>Created with Sketch.</desc>
    <g id="icon-/-blue-/-ftp" stroke="none" stroke-width="1" fill="none" fill-rule="evenodd">
        <g id="Group" transform="translate(3.500000, 7.000000)">
            <path d="M2.5,1 C3.05228475,1 3.5,1.44771525 3.5,2 C3.5,2.55228475 3.05228475,3 2.5,3 L1.5,3 C0.94771525,3 0.5,2.55228475 0.5,2 C0.5,1.44771525 0.94771525,1 1.5,1 L2.5,1 Z M6.5,1 C7.05228475,1 7.5,1.44771525 7.5,2 C7.5,2.55228475 7.05228475,3 6.5,3 L5.5,3 C4.94771525,3 4.5,2.55228475 4.5,2 C4.5,1.44771525 4.94771525,1 5.5,1 L6.5,1 Z M10.5,1 C11.0522847,1 11.5,1.44771525 11.5,2 C11.5,2.55228475 11.0522847,3 10.5,3 L9.5,3 C8.94771525,3 8.5,2.55228475 8.5,2 C8.5,1.44771525 8.94771525,1 9.5,1 L10.5,1 Z" id="Rectangle-Copy-2" fill="#2979FF"></path>
            <polyline id="Path-31" stroke="#2979FF" stroke-width="2" stroke-linecap="round" stroke-linejoin="round" points="1.5 10 5.5 6 8.5 9 13.5 4"></polyline>
            <circle id="Oval" stroke="#2979FF" stroke-width="2" cx="15.5" cy="2" r="2"></circle>
        </g>
    </g>
</svg>