<?xml version="1.0" encoding="UTF-8"?>
<svg width="24px" height="24px" viewBox="0 0 24 24" version="1.1" xmlns="http://www.w3.org/2000/svg" xmlns:xlink="http://www.w3.org/1999/xlink">
    <!-- Generator: Sketch 57.1 (83088) - https://sketch.com -->
    <title>icon / blue / close now</title>
    <desc>Created with Sketch.</desc>
    <g id="icon-/-blue-/-close-now" stroke="none" stroke-width="1" fill="none" fill-rule="evenodd">
        <path d="M12,3.5 C16.6944204,3.5 20.5,7.30557963 20.5,12 C20.5,16.6944204 16.6944204,20.5 12,20.5 C7.30557963,20.5 3.5,16.6944204 3.5,12 C3.5,7.30557963 7.30557963,3.5 12,3.5 Z M12,5.5 C8.41014913,5.5 5.5,8.41014913 5.5,12 C5.5,15.5898509 8.41014913,18.5 12,18.5 C15.5898509,18.5 18.5,15.5898509 18.5,12 C18.5,8.41014913 15.5898509,5.5 12,5.5 Z M15.25,11 C15.8022847,11 16.25,11.4477153 16.25,12 C16.25,12.5522847 15.8022847,13 15.25,13 L8.75,13 C8.19771525,13 7.75,12.5522847 7.75,12 C7.75,11.4477153 8.19771525,11 8.75,11 L15.25,11 Z" id="Oval-3" fill="#2979FF"></path>
    </g>
</svg>