<?xml version="1.0" encoding="UTF-8"?>
<svg width="24px" height="24px" viewBox="0 0 24 24" version="1.1" xmlns="http://www.w3.org/2000/svg" xmlns:xlink="http://www.w3.org/1999/xlink">
    <!-- Generator: Sketch 57.1 (83088) - https://sketch.com -->
    <title>icon / blue / increase</title>
    <desc>Created with Sketch.</desc>
    <g id="icon-/-blue-/-increase" stroke="none" stroke-width="1" fill="none" fill-rule="evenodd">
        <path d="M18.3535534,3.85355339 L20.6464466,6.14644661 C20.8417088,6.34170876 20.8417088,6.65829124 20.6464466,6.85355339 C20.5526784,6.94732158 20.4255015,7 20.2928932,7 L19,7 L19,17 C19,17.5522847 18.5522847,18 18,18 C17.4477153,18 17,17.5522847 17,17 L17,7 L15.7071068,7 C15.4309644,7 15.2071068,6.77614237 15.2071068,6.5 C15.2071068,6.36739176 15.2597852,6.2402148 15.3535534,6.14644661 L17.6464466,3.85355339 C17.8417088,3.65829124 18.1582912,3.65829124 18.3535534,3.85355339 Z M14,10 C14.5522847,10 15,10.4477153 15,11 L15,17 C15,17.5522847 14.5522847,18 14,18 C13.4477153,18 13,17.5522847 13,17 L13,11 C13,10.4477153 13.4477153,10 14,10 Z M10,12 C10.5522847,12 11,12.4477153 11,13 L11,17 C11,17.5522847 10.5522847,18 10,18 C9.44771525,18 9,17.5522847 9,17 L9,13 C9,12.4477153 9.44771525,12 10,12 Z M6,13 C6.55228475,13 7,13.4477153 7,14 L7,17 C7,17.5522847 6.55228475,18 6,18 C5.44771525,18 5,17.5522847 5,17 L5,14 C5,13.4477153 5.44771525,13 6,13 Z" id="Rectangle-Copy-2" fill="#2979FF"></path>
    </g>
</svg>