<?xml version="1.0" encoding="UTF-8"?>
<svg width="24px" height="24px" viewBox="0 0 24 24" version="1.1" xmlns="http://www.w3.org/2000/svg" xmlns:xlink="http://www.w3.org/1999/xlink">
    <!-- Generator: Sketch 57.1 (83088) - https://sketch.com -->
    <title>icon / blue / extend</title>
    <desc>Created with Sketch.</desc>
    <g id="icon-/-blue-/-extend" stroke="none" stroke-width="1" fill="none" fill-rule="evenodd">
        <path d="M12,10 C12.5128358,10 12.9355072,10.3860402 12.9932723,10.8833789 L13,11 L13,16 L14.2928932,16 C14.4255015,16 14.5526784,16.0526784 14.6464466,16.1464466 C14.820013,16.320013 14.8392981,16.5894374 14.7043021,16.7843055 L14.6464466,16.8535534 L12.3535534,19.1464466 C12.179987,19.320013 11.9105626,19.3392981 11.7156945,19.2043021 L11.6464466,19.1464466 L9.35355339,16.8535534 C9.2597852,16.7597852 9.20710678,16.6326082 9.20710678,16.5 C9.20710678,16.2545401 9.38398194,16.0503916 9.61723115,16.0080557 L9.70710678,16 L11,16 L11,11 C11,10.4477153 11.4477153,10 12,10 Z M6.5,6 C7.05228475,6 7.5,6.44771525 7.5,7 C7.5,7.55228475 7.05228475,8 6.5,8 L5.5,8 C4.94771525,8 4.5,7.55228475 4.5,7 C4.5,6.44771525 4.94771525,6 5.5,6 L6.5,6 Z M10.5,6 C11.0522847,6 11.5,6.44771525 11.5,7 C11.5,7.55228475 11.0522847,8 10.5,8 L9.5,8 C8.94771525,8 8.5,7.55228475 8.5,7 C8.5,6.44771525 8.94771525,6 9.5,6 L10.5,6 Z M14.5,6 C15.0522847,6 15.5,6.44771525 15.5,7 C15.5,7.55228475 15.0522847,8 14.5,8 L13.5,8 C12.9477153,8 12.5,7.55228475 12.5,7 C12.5,6.44771525 12.9477153,6 13.5,6 L14.5,6 Z M18.5,6 C19.0522847,6 19.5,6.44771525 19.5,7 C19.5,7.55228475 19.0522847,8 18.5,8 L17.5,8 C16.9477153,8 16.5,7.55228475 16.5,7 C16.5,6.44771525 16.9477153,6 17.5,6 L18.5,6 Z" id="Rectangle-Copy-2" fill="#2979FF"></path>
    </g>
</svg>