<?xml version="1.0" encoding="UTF-8"?>
<svg width="24px" height="24px" viewBox="0 0 24 24" version="1.1" xmlns="http://www.w3.org/2000/svg" xmlns:xlink="http://www.w3.org/1999/xlink">
    <!-- Generator: Sketch 59.1 (86144) - https://sketch.com -->
    <title>icon / blue / security</title>
    <desc>Created with Sketch.</desc>
    <g id="icon-/-blue-/-security" stroke="none" stroke-width="1" fill="none" fill-rule="evenodd">
        <path d="M18.00354,4 C19,4 20,5 20,6 C20,12.9661551 17.5936868,17.8267861 12.7810604,20.581893 L12.4771351,20.7513403 C12.1795561,20.9129062 11.8204305,20.9129061 11.5228516,20.75134 C6.50761719,18.0283917 4,13.1112784 4,6 C4,5 5,4 6.01283237,3.98539357 C7.02566474,3.97078714 14.2122438,4 18.00354,4 Z M11.75,5.96798109 C11.649993,5.96798109 11.5596084,6.02758031 11.5202137,6.11950127 L9.1493485,11.6515202 C9.09495959,11.7784276 9.15374748,11.9253974 9.28065493,11.9797863 C9.31177414,11.9931231 9.34527806,12 9.37913475,12 L11.75,12 C11.8880712,12 12,12.1119288 12,12.25 L12,15.7820189 C12,15.9200901 12.1119288,16.0320189 12.25,16.0320189 C12.350007,16.0320189 12.4403916,15.9724197 12.4797863,15.8804987 L14.8506515,10.3484798 C14.9050404,10.2215724 14.8462525,10.0746026 14.7193451,10.0202137 C14.6882259,10.0068769 14.6547219,10 14.6208652,10 L12.25,10 C12.1119288,10 12,9.88807119 12,9.75 L12,6.21798109 C12,6.0799099 11.8880712,5.96798109 11.75,5.96798109 Z" id="Path-35" fill="#2979FF"></path>
    </g>
</svg>