<?xml version="1.0" encoding="UTF-8"?>
<svg width="24px" height="24px" viewBox="0 0 24 24" version="1.1" xmlns="http://www.w3.org/2000/svg" xmlns:xlink="http://www.w3.org/1999/xlink">
    <!-- Generator: Sketch 59.1 (86144) - https://sketch.com -->
    <title>logo / payment / blue / qr code</title>
    <desc>Created with Sketch.</desc>
    <g id="logo-/-payment-/-blue-/-qr-code" stroke="none" stroke-width="1" fill="none" fill-rule="evenodd">
        <path d="M4.66666667,2 L9,2 C9.55228475,2 10,2.44771525 10,3 C10,3.55228475 9.55228475,4 9,4 L4.66666667,4 C4.29847683,4 4,4.29847683 4,4.66666667 L4,9 C4,9.55228475 3.55228475,10 3,10 C2.44771525,10 2,9.55228475 2,9 L2,4.66666667 C2,3.19390733 3.19390733,2 4.66666667,2 Z M3,14 C3.55228475,14 4,14.4477153 4,15 L4,15 L4,19.3333333 C4,19.7015232 4.29847683,20 4.66666667,20 L4.66666667,20 L9,20 C9.55228475,20 10,20.4477153 10,21 C10,21.5522847 9.55228475,22 9,22 L9,22 L4.66666667,22 C3.19390733,22 2,20.8060927 2,19.3333333 L2,19.3333333 L2,15 C2,14.4477153 2.44771525,14 3,14 Z M21,14 C21.5522847,14 22,14.4477153 22,15 L22,15 L22,19.3333333 C22,20.8060927 20.8060927,22 19.3333333,22 L19.3333333,22 L15,22 C14.4477153,22 14,21.5522847 14,21 C14,20.4477153 14.4477153,20 15,20 L15,20 L19.3333333,20 C19.7015232,20 20,19.7015232 20,19.3333333 L20,19.3333333 L20,15 C20,14.4477153 20.4477153,14 21,14 Z M10,12.6666667 C10.7363797,12.6666667 11.3333333,13.2636203 11.3333333,14 L11.3333333,15.3333333 C11.3333333,16.069713 10.7363797,16.6666667 10,16.6666667 L8.66666667,16.6666667 C7.930287,16.6666667 7.33333333,16.069713 7.33333333,15.3333333 L7.33333333,14 C7.33333333,13.2636203 7.930287,12.6666667 8.66666667,12.6666667 L10,12.6666667 Z M10,6 C10.7363797,6 11.3333333,6.59695367 11.3333333,7.33333333 L11.3333333,10 C11.3333333,10.7363797 10.7363797,11.3333333 10,11.3333333 L7.33333333,11.3333333 C6.59695367,11.3333333 6,10.7363797 6,10 L6,7.33333333 C6,6.59695367 6.59695367,6 7.33333333,6 L10,6 Z M15.3333333,7.33333333 C16.069713,7.33333333 16.6666667,7.930287 16.6666667,8.66666667 L16.6666667,10 C16.6666667,10.7363797 16.069713,11.3333333 15.3333333,11.3333333 L14,11.3333333 C13.2636203,11.3333333 12.6666667,10.7363797 12.6666667,10 L12.6666667,8.66666667 C12.6666667,7.930287 13.2636203,7.33333333 14,7.33333333 L15.3333333,7.33333333 Z M19.3333333,2 C20.8060927,2 22,3.19390733 22,4.66666667 L22,9 C22,9.55228475 21.5522847,10 21,10 C20.4477153,10 20,9.55228475 20,9 L20,4.66666667 C20,4.29847683 19.7015232,4 19.3333333,4 L15,4 C14.4477153,4 14,3.55228475 14,3 C14,2.44771525 14.4477153,2 15,2 L19.3333333,2 Z M16.6666667,12.6666667 C17.4030463,12.6666667 18,13.2636203 18,14 L18,16.6666667 C18,17.4030463 17.4030463,18 16.6666667,18 L14,18 C13.2636203,18 12.6666667,17.4030463 12.6666667,16.6666667 L12.6666667,14 C12.6666667,13.2636203 13.2636203,12.6666667 14,12.6666667 L16.6666667,12.6666667 Z M16,14 L14.6666667,14 C14.2984768,14 14,14.2984768 14,14.6666667 L14,14.6666667 L14,16 C14,16.3681898 14.2984768,16.6666667 14.6666667,16.6666667 L14.6666667,16.6666667 L16,16.6666667 C16.3681898,16.6666667 16.6666667,16.3681898 16.6666667,16 L16.6666667,16 L16.6666667,14.6666667 C16.6666667,14.2984768 16.3681898,14 16,14 L16,14 Z" id="Rectangle-13" fill="#2979FF"></path>
    </g>
</svg>