<?xml version="1.0" encoding="UTF-8"?>
<svg width="24px" height="24px" viewBox="0 0 24 24" version="1.1" xmlns="http://www.w3.org/2000/svg" xmlns:xlink="http://www.w3.org/1999/xlink">
    <!-- Generator: Sketch 60 (88103) - https://sketch.com -->
    <title>icon / menu / line / get loan</title>
    <desc>Created with Sketch.</desc>
    <g id="icon-/-menu-/-line-/-get-loan" stroke="none" stroke-width="1" fill="none" fill-rule="evenodd">
        <path d="M8.42594475,8.61364468 L13.0898435,10.1341178 C14.1646112,10.4845018 14.8610907,11.5236154 14.776753,12.6509049 L14.7385796,13.1611441 L19.7203597,12.1259348 C21.0775275,11.8439166 22.4303615,12.6247911 22.86498,13.941053 L22.8749433,13.9712272 C23.3022735,15.2654165 22.6031945,16.6615968 21.3109534,17.0947826 L13.0636858,19.8594357 C12.612391,20.010719 12.1293613,20.0412585 11.6626065,19.9480188 L3.818,18.381 L3.81818182,18.4626899 C3.81818182,18.9647669 3.41116795,19.3717808 2.90909091,19.3717808 C2.40701386,19.3717808 2,18.9647669 2,18.4626899 L2,9.47976448 C2,8.97768743 2.40701386,8.57067357 2.90909091,8.57067357 C3.41116795,8.57067357 3.81818182,8.97768743 3.81818182,9.47976448 L3.818,9.817 L6.53343402,8.68838517 C7.13508685,8.43819228 7.80643492,8.41167888 8.42594475,8.61364468 Z M8.61580086,10.4203462 C7.99147797,10.2142985 7.31373669,10.2407117 6.70734338,10.4947232 L6.70734338,10.4947232 L4.13204297,11.5734885 C4.03018746,11.6161546 3.92421093,11.6389991 3.8188106,11.6433824 L3.81849756,16.6758845 C3.96355346,16.6435086 4.1167586,16.6404633 4.26947598,16.6709704 L4.26947598,16.6709704 L11.6612454,18.1475624 C12.1288619,18.2409742 12.6127979,18.2101465 13.0647817,18.0581543 L13.0647817,18.0581543 L20.896937,15.424373 C20.9217573,15.4160265 20.9461558,15.4064743 20.9700454,15.3957505 C21.3758047,15.2136102 21.5570836,14.7370234 21.3749433,14.3312641 C21.1636596,13.8605814 20.6488833,13.605164 20.146272,13.721632 L20.146272,13.721632 L13.1793101,15.3360574 C12.7119503,15.4443568 12.224292,15.427459 11.7655495,15.2870694 L11.7655495,15.2870694 L8.25974453,14.2141831 C7.81183987,14.0771102 7.54509084,13.6181835 7.64767053,13.1611441 C7.65082005,13.1471115 7.65435419,13.1331681 7.65826895,13.1193294 C7.77641135,12.7016971 8.21074258,12.4589125 8.62837491,12.5770549 L8.62837491,12.5770549 L12.0271104,13.5385101 C12.0353171,13.5408317 12.0435562,13.5430367 12.0518254,13.5451247 C12.5350341,13.6671346 13.0256606,13.3743251 13.1476705,12.8911165 C13.2757321,12.3839407 12.9901117,11.8640168 12.4933719,11.7000758 L12.4933719,11.7000758 Z M17.0113069,2 C19.2706536,2 21.102216,3.81343266 21.102216,6.05041521 C21.102216,8.28739776 19.2706536,10.1008304 17.0113069,10.1008304 C14.7519602,10.1008304 12.9203978,8.28739776 12.9203978,6.05041521 C12.9203978,3.81343266 14.7519602,2 17.0113069,2 Z M17.0113069,3.80018454 C15.7561143,3.80018454 14.7385796,4.80764713 14.7385796,6.05041521 C14.7385796,7.2931833 15.7561143,8.30064589 17.0113069,8.30064589 C18.2664995,8.30064589 19.2840342,7.2931833 19.2840342,6.05041521 C19.2840342,4.80764713 18.2664995,3.80018454 17.0113069,3.80018454 Z" id="Path-6" fill="#2979FF"></path>
    </g>
</svg>