<?xml version="1.0" encoding="UTF-8"?>
<svg width="24px" height="24px" viewBox="0 0 24 24" version="1.1" xmlns="http://www.w3.org/2000/svg" xmlns:xlink="http://www.w3.org/1999/xlink">
    <!-- Generator: Sketch 60 (88103) - https://sketch.com -->
    <title>icon / menu / line / savings</title>
    <desc>Created with Sketch.</desc>
    <g id="icon-/-menu-/-line-/-savings" stroke="none" stroke-width="1" fill="none" fill-rule="evenodd">
        <path d="M17,13.5 C18.6568542,13.5 20,14.8431458 20,16.5 C20,18.1568542 18.6568542,19.5 17,19.5 C15.3431458,19.5 14,18.1568542 14,16.5 C14,14.8431458 15.3431458,13.5 17,13.5 Z M18.363961,5.63603897 C18.7544853,6.02656326 18.7544853,6.65972824 18.363961,7.05025253 L7.05025253,18.363961 C6.65972824,18.7544853 6.02656326,18.7544853 5.63603897,18.363961 C5.24551468,17.9734367 5.24551468,17.3402718 5.63603897,16.9497475 L16.9497475,5.63603897 C17.3402718,5.24551468 17.9734367,5.24551468 18.363961,5.63603897 Z M17,15.4090909 C16.3975075,15.4090909 15.9090909,15.8975075 15.9090909,16.5 C15.9090909,17.1024925 16.3975075,17.5909091 17,17.5909091 C17.6024925,17.5909091 18.0909091,17.1024925 18.0909091,16.5 C18.0909091,15.8975075 17.6024925,15.4090909 17,15.4090909 Z M7,4.5 C8.65685425,4.5 10,5.84314575 10,7.5 C10,9.15685425 8.65685425,10.5 7,10.5 C5.34314575,10.5 4,9.15685425 4,7.5 C4,5.84314575 5.34314575,4.5 7,4.5 Z M7,6.40909091 C6.39750755,6.40909091 5.90909091,6.89750755 5.90909091,7.5 C5.90909091,8.10249245 6.39750755,8.59090909 7,8.59090909 C7.60249245,8.59090909 8.09090909,8.10249245 8.09090909,7.5 C8.09090909,6.89750755 7.60249245,6.40909091 7,6.40909091 Z" id="Rectangle-2" fill="#2979FF"></path>
    </g>
</svg>