<?xml version="1.0" encoding="UTF-8"?>
<svg width="24px" height="24px" viewBox="0 0 24 24" version="1.1" xmlns="http://www.w3.org/2000/svg" xmlns:xlink="http://www.w3.org/1999/xlink">
    <!-- Generator: Sketch 60 (88103) - https://sketch.com -->
    <title>icon / menu / line / profile</title>
    <desc>Created with Sketch.</desc>
    <g id="icon-/-menu-/-line-/-profile" stroke="none" stroke-width="1" fill="none" fill-rule="evenodd">
        <path d="M4.00380682,19.7508207 C4.1098022,16.2863678 6.4184739,13.3762468 9.57667124,12.3736085 C8.03974779,11.5210802 7,9.88196314 7,8 C7,5.23857625 9.23857625,3 12,3 C14.7614237,3 17,5.23857625 17,8 C17,9.88196314 15.9602522,11.5210802 14.4238604,12.3742473 C17.6569608,13.4001952 20,16.4264745 20,20 C20,20.5522847 19.5522847,21 19,21 C18.4477153,21 18,20.5522847 18,20 L18,20 C18,16.6862915 15.3137085,14 12,14 C8.76160306,14 6.12242824,16.5655749 6.00413847,19.7750617 L6,20 C6,20.5522847 5.55228475,21 5,21 C4.44771525,21 4,20.5522847 4,20 L4,20 Z M12,5 C10.3431458,5 9,6.34314575 9,8 C9,9.65685425 10.3431458,11 12,11 C13.6568542,11 15,9.65685425 15,8 C15,6.34314575 13.6568542,5 12,5 Z" id="Oval" fill="#2979FF"></path>
    </g>
</svg>