<?xml version="1.0" encoding="UTF-8"?>
<svg width="24px" height="24px" viewBox="0 0 24 24" version="1.1" xmlns="http://www.w3.org/2000/svg" xmlns:xlink="http://www.w3.org/1999/xlink">
    <!-- Generator: Sketch 60 (88103) - https://sketch.com -->
    <title>icon / blue / question</title>
    <desc>Created with Sketch.</desc>
    <g id="icon-/-blue-/-question" stroke="none" stroke-width="1" fill="none" fill-rule="evenodd">
        <path d="M12,4 C16.418278,4 20,7.581722 20,12 C20,16.418278 16.418278,20 12,20 C7.581722,20 4,16.418278 4,12 C4,7.581722 7.581722,4 12,4 Z M12.0085,14.119 C11.7444987,14.119 11.508001,14.2069991 11.299,14.383 C11.089999,14.5590009 10.9855,14.8083317 10.9855,15.131 C10.9855,15.4536683 11.089999,15.7029991 11.299,15.879 C11.508001,16.0550009 11.7444987,16.143 12.0085,16.143 C12.2725013,16.143 12.508999,16.0550009 12.718,15.879 C12.927001,15.7029991 13.0315,15.4536683 13.0315,15.131 C13.0315,14.8083317 12.927001,14.5590009 12.718,14.383 C12.508999,14.2069991 12.2725013,14.119 12.0085,14.119 Z M12.1735,8.201 C11.7994981,8.201 11.4181686,8.25049951 11.0295,8.3495 C10.6408314,8.4485005 10.3035014,8.58966575 10.0175,8.773 L10.0175,8.773 L10.4795,10.016 C10.7655014,9.8693326 11.0258322,9.76300033 11.2605,9.697 C11.4951678,9.63099967 11.7444987,9.598 12.0085,9.598 C12.2725013,9.598 12.4723327,9.66033271 12.608,9.785 C12.7436673,9.90966729 12.8115,10.0599991 12.8115,10.236 C12.8115,10.4486677 12.741834,10.6374992 12.6025,10.8025 C12.463166,10.9675008 12.3091675,11.1343325 12.1405,11.303 C12.0231661,11.4203339 11.9095005,11.5413327 11.7995,11.666 C11.6894994,11.7906673 11.5923338,11.9244993 11.508,12.0675 C11.4236662,12.2105007 11.3558336,12.3644992 11.3045,12.5295 C11.2531664,12.6945008 11.2275,12.8796656 11.2275,13.085 C11.2275,13.1510003 11.2293333,13.2298329 11.233,13.3215 C11.2366667,13.4131671 11.2458333,13.4956663 11.2605,13.569 L11.2605,13.569 L12.7125,13.569 C12.7051666,13.5249998 12.7015,13.473667 12.7015,13.415 L12.7015,13.415 L12.7015,13.283 C12.7015,13.1583327 12.7271664,13.0355006 12.7785,12.9145 C12.8298336,12.7934994 12.8939996,12.6780006 12.971,12.568 C13.0480004,12.4579995 13.1341662,12.3535005 13.2295,12.2545 C13.3248338,12.1554995 13.4164996,12.0620004 13.5045,11.974 C13.6218339,11.8566661 13.7428327,11.7320007 13.8675,11.6 C13.9921673,11.4679993 14.1021662,11.3286674 14.1975,11.182 C14.2928338,11.0353326 14.3716664,10.8758342 14.434,10.7035 C14.4963336,10.5311658 14.5275,10.3423344 14.5275,10.137 C14.5275,9.93166564 14.492667,9.71533447 14.423,9.488 C14.353333,9.26066553 14.2305009,9.05166762 14.0545,8.861 C13.8784991,8.67033238 13.6383349,8.51266729 13.334,8.388 C13.0296651,8.26333271 12.6428357,8.201 12.1735,8.201 Z" id="Oval-2" fill="#2979FF"></path>
    </g>
</svg>