<?xml version="1.0" encoding="UTF-8"?>
<svg width="24px" height="24px" viewBox="0 0 24 24" version="1.1" xmlns="http://www.w3.org/2000/svg" xmlns:xlink="http://www.w3.org/1999/xlink">
    <title>icon / blue / tab / conversion</title>
    <g id="icon-/-blue-/-tab-/-conversion" stroke="none" stroke-width="1" fill="none" fill-rule="evenodd">
        <path d="M18.5,14 C18.7761424,14 19,14.2238576 19,14.5 L19,14.5 L19,15.5 C19,15.7761424 18.7761424,16 18.5,16 L18.5,16 L11,16 L11,18.7928932 C11,18.9255015 10.9473216,19.0526784 10.8535534,19.1464466 C10.6582912,19.3417088 10.3417088,19.3417088 10.1464466,19.1464466 L10.1464466,19.1464466 L5.85355339,14.8535534 C5.7597852,14.7597852 5.70710678,14.6326082 5.70710678,14.5 C5.70710678,14.2238576 5.93096441,14 6.20710678,14 L6.20710678,14 Z M13.1464466,4.85355339 C13.3417088,4.65829124 13.6582912,4.65829124 13.8535534,4.85355339 L13.8535534,4.85355339 L18.1464466,9.14644661 C18.2402148,9.2402148 18.2928932,9.36739176 18.2928932,9.5 C18.2928932,9.77614237 18.0690356,10 17.7928932,10 L17.7928932,10 L5.5,10 C5.22385763,10 5,9.77614237 5,9.5 L5,9.5 L5,8.5 C5,8.22385763 5.22385763,8 5.5,8 L5.5,8 L13,8 L13,5.20710678 C13,5.07449854 13.0526784,4.94732158 13.1464466,4.85355339 Z" id="Path-4" fill="#2979FF"></path>
    </g>
</svg>