<?xml version="1.0" encoding="UTF-8"?>
<svg width="24px" height="24px" viewBox="0 0 24 24" version="1.1" xmlns="http://www.w3.org/2000/svg" xmlns:xlink="http://www.w3.org/1999/xlink">
    <title>icon_diploma</title>
    <g id="icon_diploma" stroke="none" stroke-width="1" fill="none" fill-rule="evenodd">
        <path d="M14,3 C15.6568542,3 17,4.34314575 17,6 L17,7 L18,7 C19.6568542,7 21,8.34314575 21,10 L21,17 C21,18.6568542 19.6568542,20 18,20 L6,20 C4.34314575,20 3,18.6568542 3,17 L3,10 C3,8.34314575 4.34314575,7 6,7 L7,7 L7,6 C7,4.34314575 8.34314575,3 10,3 L14,3 Z M18,9 L6,9 C5.44771525,9 5,9.44771525 5,10 L5,10 L5,12 L9,12 C9.55228475,12 10,12.4477153 10,13 C10,13.5522847 9.55228475,14 9,14 L5,14 L5,17 C5,17.5522847 5.44771525,18 6,18 L6,18 L18,18 C18.5522847,18 19,17.5522847 19,17 L19,17 L19,14 L15,14 C14.4477153,14 14,13.5522847 14,13 C14,12.4477153 14.4477153,12 15,12 L15,12 L19,12 L19,10 C19,9.44771525 18.5522847,9 18,9 L18,9 Z M14,5 L10,5 C9.44771525,5 9,5.44771525 9,6 L9,6 L9,7 L15,7 L15,6 C15,5.44771525 14.5522847,5 14,5 L14,5 Z M12,14 C12.5522847,14 13,13.5522847 13,13 C13,12.4477153 12.5522847,12 12,12 C11.4477153,12 11,12.4477153 11,13 C11,13.5522847 11.4477153,14 12,14 Z" id="wallet-icon" fill="#2979FF"></path>
    </g>
</svg>