<?xml version="1.0" encoding="utf-8"?>
<!-- Generator: Adobe Illustrator 27.2.0, SVG Export Plug-In . SVG Version: 6.00 Build 0)  -->
<svg version="1.1" id="Layer_1" xmlns="http://www.w3.org/2000/svg" xmlns:xlink="http://www.w3.org/1999/xlink" x="0px" y="0px"
	 viewBox="0 0 48 48" style="enable-background:new 0 0 48 48;" xml:space="preserve">
<style type="text/css">
	.st0{fill:#2979FF;}
</style>
<path class="st0" d="M7.5,35.7v4.8h34v-4.8H7.5z M7.5,13.5h6.3c-0.2-0.3-0.3-0.7-0.4-1.1c-0.1-0.4-0.1-0.9-0.1-1.2
	c0-1.6,0.6-2.9,1.6-4c1.1-1.1,2.4-1.6,3.9-1.6c1,0,2,0.3,2.8,0.8c0.9,0.5,1.6,1.2,2.1,2l0.8,1.3l0.8-1.3c0.5-0.8,1.2-1.5,2.1-2
	c0.8-0.5,1.7-0.8,2.7-0.8c1.6,0,3,0.5,4.1,1.6c1.1,1.1,1.6,2.4,1.6,4c0,0.4,0,0.7-0.1,1.1c-0.1,0.4-0.2,0.8-0.4,1.2h6.2
	c0.8,0,1.5,0.3,2.1,0.9c0.6,0.6,0.9,1.3,0.9,2.1v24c0,0.8-0.3,1.5-0.9,2.1c-0.6,0.6-1.3,0.9-2.1,0.9h-34c-0.8,0-1.5-0.3-2.1-0.9
	c-0.6-0.6-0.9-1.3-0.9-2.1v-24c0-0.8,0.3-1.5,0.9-2.1C6,13.8,6.7,13.5,7.5,13.5z M7.5,30.3h34V16.5H29l5,7l-2.4,1.8l-7.1-9.9
	l-7.1,9.9l-2.4-1.8l5-7H7.5V30.3z M18.9,13.8c0.7,0,1.4-0.3,1.9-0.8c0.5-0.5,0.8-1.1,0.8-1.9s-0.3-1.4-0.8-1.9
	c-0.5-0.5-1.1-0.8-1.9-0.8c-0.7,0-1.4,0.3-1.9,0.8c-0.5,0.5-0.8,1.1-0.8,1.9s0.3,1.4,0.8,1.9C17.5,13.5,18.1,13.8,18.9,13.8z
	 M30.1,13.8c0.8,0,1.4-0.3,1.9-0.8c0.5-0.5,0.8-1.1,0.8-1.9S32.5,9.8,32,9.3c-0.5-0.5-1.2-0.8-1.9-0.8c-0.7,0-1.3,0.3-1.8,0.8
	c-0.5,0.5-0.8,1.1-0.8,1.9s0.3,1.4,0.8,1.9C28.8,13.5,29.4,13.8,30.1,13.8z"/>
</svg>
