<svg width="40" height="40" viewBox="0 0 40 40" fill="none" xmlns="http://www.w3.org/2000/svg">
<g id="20 / hodl">
<path id="Icon" fill-rule="evenodd" clip-rule="evenodd" d="M33.298 16C34.238 16 35.0001 16.7462 35.0001 17.6667V34.3334C35.0001 35.2538 34.238 36 33.298 36H28.7022C27.7622 36 27.0001 35.2538 27.0001 34.3334V17.6667C27.0001 16.7462 27.7622 16 28.7022 16H33.298ZM11.298 26C12.238 26 13.0001 26.7462 13.0001 27.6667V34.3334C13.0001 35.2538 12.238 36 11.298 36H6.70222C5.76216 36 5.0001 35.2538 5.0001 34.3334V27.6667C5.0001 26.7462 5.76216 26 6.70222 26H11.298ZM22.298 22C23.238 22 24.0001 22.6716 24.0001 23.5V34.5C24.0001 35.3285 23.238 36 22.298 36H17.7022C16.7622 36 16.0001 35.3285 16.0001 34.5V23.5C16.0001 22.6716 16.7622 22 17.7022 22H22.298ZM34.1666 4C34.5757 4 34.9159 4.29479 34.9865 4.68354L34.9999 4.83333V11.9882C34.9999 12.2092 34.9121 12.4211 34.7558 12.5774C34.4666 12.8667 34.0175 12.8988 33.6928 12.6738L33.5773 12.5774L31.0923 10.0929C23.1238 17.2132 15.0506 21.3046 6.87206 22.3206C5.9586 22.4341 5.12611 21.7856 5.01264 20.8721C4.89917 19.9587 5.54768 19.1262 6.46114 19.0127C13.8644 18.0931 21.2877 14.3483 28.7304 7.73312L26.4225 5.42259C26.2662 5.26631 26.1784 5.05435 26.1784 4.83333C26.1784 4.42423 26.4732 4.08399 26.862 4.01343L27.0118 4H34.1666Z" fill="#2979FF"/>
</g>
</svg>
