<svg width="40" height="40" viewBox="0 0 40 40" fill="none" xmlns="http://www.w3.org/2000/svg">
<g id="20 / interest">
<g id="Union">
<path fill-rule="evenodd" clip-rule="evenodd" d="M12 5.5C8.41015 5.5 5.5 8.41015 5.5 12C5.5 15.5899 8.41015 18.5 12 18.5C15.5899 18.5 18.5 15.5899 18.5 12C18.5 8.41015 15.5899 5.5 12 5.5ZM8.5 12C8.5 10.067 10.067 8.5 12 8.5C13.933 8.5 15.5 10.067 15.5 12C15.5 13.933 13.933 15.5 12 15.5C10.067 15.5 8.5 13.933 8.5 12Z" fill="#2979FF"/>
<path d="M33.0607 6.93934C33.6464 7.52513 33.6464 8.47487 33.0607 9.06066L9.06066 33.0607C8.47487 33.6464 7.52513 33.6464 6.93934 33.0607C6.35355 32.4749 6.35355 31.5251 6.93934 30.9393L30.9393 6.93934C31.5251 6.35355 32.4749 6.35355 33.0607 6.93934Z" fill="#2979FF"/>
<path fill-rule="evenodd" clip-rule="evenodd" d="M21.5 28C21.5 24.4101 24.4101 21.5 28 21.5C31.5899 21.5 34.5 24.4101 34.5 28C34.5 31.5899 31.5899 34.5 28 34.5C24.4101 34.5 21.5 31.5899 21.5 28ZM28 24.5C26.067 24.5 24.5 26.067 24.5 28C24.5 29.933 26.067 31.5 28 31.5C29.933 31.5 31.5 29.933 31.5 28C31.5 26.067 29.933 24.5 28 24.5Z" fill="#2979FF"/>
</g>
</g>
</svg>
