<svg width="20" height="20" viewBox="0 0 20 20" fill="none" xmlns="http://www.w3.org/2000/svg">
<path d="M4.40665 4.50677L8.40665 2.25677C9.39599 1.70026 10.604 1.70026 11.5933 2.25677L15.5933 4.50677C16.6167 5.0824 17.25 6.16525 17.25 7.33939V12.6606C17.25 13.8347 16.6167 14.9176 15.5933 15.4932L11.5934 17.7432C10.604 18.2997 9.39599 18.2997 8.40665 17.7432L4.40665 15.4932C3.3833 14.9176 2.75 13.8347 2.75 12.6606V7.33939C2.75 6.16525 3.3833 5.0824 4.40665 4.50677Z" stroke="#2979FF" stroke-width="1.5" stroke-linejoin="round"/>
<path d="M9.07762 15.5C8.82639 15.5 8.63556 15.274 8.67768 15.0263L9.19935 11.9588C9.25127 11.6536 9.01607 11.375 8.70643 11.375H6.84331C6.66793 11.375 6.55966 11.3292 6.5185 11.2375C6.47781 11.1458 6.50424 11.0198 6.59777 10.8594L10.5818 4.68571C10.6566 4.56994 10.7849 4.5 10.9227 4.5V4.5C11.1739 4.5 11.3648 4.72603 11.3227 4.9737L10.801 8.04117C10.7491 8.34643 10.9843 8.625 11.2939 8.625H13.157C13.3324 8.625 13.4404 8.67083 13.4811 8.7625C13.5223 8.85417 13.4961 8.98021 13.4026 9.14062L9.41849 15.3143C9.34378 15.4301 9.21541 15.5 9.07762 15.5V15.5Z" fill="#2979FF"/>
</svg>
