<svg width="20" height="20" viewBox="0 0 20 20" fill="none" xmlns="http://www.w3.org/2000/svg">
<path fill-rule="evenodd" clip-rule="evenodd" d="M10 2C14.4183 2 18 5.58172 18 10C18 14.4183 14.4183 18 10 18C5.58172 18 2 14.4183 2 10C2 5.58172 5.58172 2 10 2ZM9.25 10.75L6.52444 10.7511C6.70821 13.5555 7.90299 15.7269 9.25059 16.3313L9.25 10.75ZM13.4756 10.7511L10.75 10.75L10.7504 16.3309C12.0976 15.7259 13.2918 13.5548 13.4756 10.7511ZM5.02171 10.7505L3.54285 10.7504C3.75998 12.6392 4.7867 14.2816 6.26721 15.322C5.57654 14.0835 5.12336 12.4986 5.02171 10.7505ZM16.4571 10.7504L14.9783 10.7505C14.8766 12.4986 14.4235 14.0835 13.733 15.3224C15.2133 14.2816 16.24 12.6392 16.4571 10.7504ZM6.26705 4.67761L6.23169 4.70316C4.77003 5.74489 3.75787 7.37654 3.54274 9.25058L5.02165 9.25055C5.12318 7.50204 5.57641 5.91678 6.26705 4.67761ZM6.52438 9.24987L9.25 9.25L9.25059 3.66865C7.90283 4.27313 6.70793 6.44506 6.52438 9.24987ZM10.7504 3.6691L10.75 9.25L13.4756 9.24987C13.2921 6.44575 12.0978 4.2742 10.7504 3.6691ZM13.7328 4.67802L13.8123 4.82352C14.4583 6.04014 14.8808 7.56993 14.9783 9.25055L16.4573 9.25058C16.2404 7.36139 15.2136 5.71854 13.7328 4.67802Z" fill="#2979FF"/>
</svg>
